<?xml version="1.0" encoding="UTF-8"?>
<svg version="1.1" xmlns="http://www.w3.org/2000/svg" width="1254" height="1254">
<path d="M0 0 C413.82 0 827.64 0 1254 0 C1254 413.82 1254 827.64 1254 1254 C840.18 1254 426.36 1254 0 1254 C0 840.18 0 426.36 0 0 Z " fill="#050E18" transform="translate(0,0)"/>
<path d="M0 0 C0.96779388 0.00304138 1.93558777 0.00608276 2.93270874 0.00921631 C29.36353092 0.13101359 54.81003418 2.93949822 80.25 10.4375 C81.2100293 10.7149707 82.17005859 10.99244141 83.15917969 11.27832031 C95.05569119 14.75160946 106.19567832 18.83146639 117.25 24.4375 C118.52893846 25.0619675 119.80891493 25.68431294 121.08984375 26.3046875 C125.17235298 28.29344694 129.21779532 30.34880861 133.25 32.4375 C134.32338623 32.99195801 134.32338623 32.99195801 135.41845703 33.55761719 C156.50313148 44.5587219 175.05726544 59.06274576 192.25 75.4375 C193.148396 76.29287354 193.148396 76.29287354 194.06494141 77.16552734 C202.45122451 85.20986651 210.09572457 93.4867987 217.03417969 102.81152344 C218.184019 104.34926035 219.36079502 105.86674819 220.5390625 107.3828125 C234.62520303 125.64999827 247.78995897 146.57002141 256.1875 168.125 C256.5175 168.970625 256.8475 169.81625 257.1875 170.6875 C257.538125 171.595 257.88875 172.5025 258.25 173.4375 C258.8378125 174.9225 258.8378125 174.9225 259.4375 176.4375 C264.33022633 188.91395214 268.5112334 201.30714531 271.25 214.4375 C271.6572848 216.34641121 272.06486375 218.25525968 272.47265625 220.1640625 C272.92010398 222.27586531 273.36671071 224.38784648 273.8125 226.5 C274.02261719 227.49314209 274.23273437 228.48628418 274.44921875 229.50952148 C275.06836714 232.48207053 275.66473506 235.4581034 276.25 238.4375 C276.43546387 239.35644043 276.62092773 240.27538086 276.81201172 241.22216797 C284.2373493 281.12391265 281.40570896 328.53795349 270.25 367.4375 C269.84255649 368.94108334 269.43629794 370.4449883 269.03125 371.94921875 C266.74070076 380.25843429 263.9045725 388.21666292 260.58203125 396.16796875 C259.24179411 399.34209822 259.24179411 399.34209822 258.32421875 402.30078125 C252.31837326 419.83785009 242.83955815 437.28289194 232.25 452.4375 C231.28122975 453.84894443 230.31248102 455.26040364 229.34375 456.671875 C213.81526388 479.12963309 195.03414281 500.79350669 173.25 517.4375 C172.58258789 517.95425293 171.91517578 518.47100586 171.22753906 519.00341797 C149.43289503 535.80725152 125.74293158 548.24798454 100.25 558.4375 C99.5904834 558.70804199 98.9309668 558.97858398 98.25146484 559.25732422 C55.44200829 576.64349805 3.52416689 580.32476913 -41.75 572.4375 C-43.20986328 572.18806641 -43.20986328 572.18806641 -44.69921875 571.93359375 C-64.19553233 568.49306782 -83.48585083 563.11448481 -101.75 555.4375 C-102.47316406 555.13400635 -103.19632813 554.8305127 -103.94140625 554.51782227 C-133.08321095 542.11313632 -159.02684612 525.41353166 -182.75 504.4375 C-183.29253418 503.95812988 -183.83506836 503.47875977 -184.39404297 502.98486328 C-220.66651634 470.71310859 -246.531797 428.34574572 -261.75 382.4375 C-262.02005859 381.6522998 -262.29011719 380.86709961 -262.56835938 380.05810547 C-277.54446438 336.28535411 -280.67235217 284.89315224 -272.75 239.4375 C-272.55132324 238.29249023 -272.35264648 237.14748047 -272.14794922 235.96777344 C-263.55520241 188.09297886 -244.71158209 143.80319962 -214.75 105.4375 C-214.01265625 104.48488281 -213.2753125 103.53226562 -212.515625 102.55078125 C-193.47864496 78.61142101 -170.58896328 58.69959907 -144.75 42.4375 C-144.11191406 42.03466797 -143.47382813 41.63183594 -142.81640625 41.21679688 C-115.38341163 24.07796558 -85.72076826 12.77810469 -54.25 5.75 C-52.99086792 5.46455322 -52.99086792 5.46455322 -51.70629883 5.17333984 C-34.52065103 1.48920976 -17.5552472 -0.1182018 0 0 Z " fill="#2188FA" transform="translate(471.75,338.5625)"/>
<path d="M0 0 C1.14734619 0.41161377 1.14734619 0.41161377 2.31787109 0.83154297 C26.19205203 9.46059258 45.70687878 22.56594801 64 40 C64.83015625 40.76570313 65.6603125 41.53140625 66.515625 42.3203125 C79.69798748 54.86481873 89.50949164 70.01765756 98 86 C98.33725098 86.6305127 98.67450195 87.26102539 99.02197266 87.91064453 C107.29245507 103.66127082 112.96738587 121.49766659 116 139 C116.17700439 139.95793457 116.35400879 140.91586914 116.53637695 141.90283203 C118.21490794 152.03456299 118.33860836 162.04427101 118.31567383 172.29345703 C118.31252021 175.23117456 118.33603368 178.16787529 118.36132812 181.10546875 C118.46318348 211.68826149 110.54759321 242.10351815 96 269 C95.53207031 269.93457031 95.06414062 270.86914062 94.58203125 271.83203125 C87.1474925 286.37407626 76.89450508 298.8852355 65.49804688 310.47119141 C64.25666108 311.7380685 63.03912957 313.02826961 61.828125 314.32421875 C52.36401964 324.29388529 40.8830059 332.21370051 29 339 C28.4323291 339.3309668 27.8646582 339.66193359 27.27978516 340.00292969 C6.43758389 352.0862031 -17.99560369 359.90537916 -42.1796875 360.2734375 C-43.32233566 360.29236557 -43.32233566 360.29236557 -44.48806763 360.31167603 C-93.15805702 360.96036233 -133.22638031 346.42153155 -169 313 C-169.86367188 312.20207031 -170.72734375 311.40414063 -171.6171875 310.58203125 C-184.03305861 298.6879866 -193.66093962 284.82881654 -201.97021484 269.84082031 C-202.86558896 268.2402701 -203.79874952 266.66097271 -204.73828125 265.0859375 C-209.00802465 257.78213871 -211.62550952 250.03912663 -214.29443359 242.05126953 C-215.00701168 239.97961517 -215.77027207 237.93365912 -216.55078125 235.88671875 C-228.0017608 205.56920451 -228.55267831 167.54505438 -222 136 C-221.85691406 135.09507812 -221.71382813 134.19015625 -221.56640625 133.2578125 C-219.43791079 120.22352069 -214.51428572 106.93948589 -209 95 C-208.51144531 93.93007813 -208.02289063 92.86015625 -207.51953125 91.7578125 C-202.83852891 81.95105701 -197.14103244 72.94772813 -191 64 C-190.26523437 62.92234375 -189.53046875 61.8446875 -188.7734375 60.734375 C-163.24243381 25.55030631 -123.70434972 0.32420254 -80.75 -6.875 C-54.28808462 -10.73034289 -25.1329693 -9.34150984 0 0 Z " fill="#050E19" transform="translate(528,451)"/>
<path d="M0 0 C31.99184047 -0.09162112 63.98364299 -0.16222858 95.97558437 -0.20426132 C99.76863524 -0.20926302 103.56168585 -0.21444042 107.35473633 -0.21972656 C108.48723597 -0.22130043 108.48723597 -0.22130043 109.6426144 -0.22290608 C121.80276643 -0.24022249 133.96284137 -0.27171071 146.12294795 -0.30861118 C158.63797051 -0.34626661 171.15295322 -0.36828725 183.66803008 -0.37635398 C191.36536845 -0.38179133 199.06248878 -0.39884231 206.75975988 -0.43166587 C212.70236202 -0.45568695 218.64485758 -0.45775896 224.58750916 -0.45243073 C226.99578997 -0.45351472 229.40408048 -0.46124556 231.81231117 -0.4768219 C283.58637924 -0.79474475 333.98866603 13.08146986 372.6328125 48.82421875 C374.16359299 50.23122326 375.71982305 51.61123957 377.3046875 52.95703125 C383.32355334 58.06994323 388.14423668 63.78893121 393 70 C393.58394531 70.70640625 394.16789062 71.4128125 394.76953125 72.140625 C426.43757652 111.00258219 436.69145681 160.92597773 432.05249023 209.86816406 C428.26223605 244.06916628 414.41433692 278.77642872 392 305 C391.07324591 306.1215927 390.14753768 307.24405008 389.22265625 308.3671875 C370.23626743 331.22708473 346.28150649 346.72501985 319 358 C318.22100342 358.33217529 317.44200684 358.66435059 316.6394043 359.0065918 C284.48646547 372.40921684 248.69640523 371.45241714 214.53308105 371.20599365 C209.71805917 371.17470045 204.90298596 371.16147691 200.08789062 371.14648438 C190.7251311 371.11479343 181.36259116 371.06394295 172 371 C172.0129051 371.85899745 172.0258102 372.7179949 172.03910637 373.60302258 C172.34885746 394.54522111 172.58023195 415.48702266 172.72537041 436.43103313 C172.79743282 446.55976022 172.89559673 456.68695444 173.05615234 466.81469727 C173.19609719 475.64656902 173.28610771 484.4773304 173.31723893 493.31028014 C173.33542712 497.98405208 173.37787237 502.65464885 173.48022079 507.3273983 C173.57597798 511.73535365 173.60442791 516.13885948 173.58350754 520.5477562 C173.5873281 522.15671266 173.61477033 523.76583321 173.66887665 525.3738842 C173.89525177 532.455133 173.88028832 538.28763901 168.96756363 543.78373146 C165.54243251 547.16281957 161.83429497 550.10435165 158 553 C156.18473027 554.47576627 154.37158002 555.95415251 152.5625 557.4375 C151.68722656 558.13746094 150.81195312 558.83742188 149.91015625 559.55859375 C146.31225172 562.57697003 142.91085578 565.77356095 139.5 569 C134.4338792 573.79220789 129.26245513 578.30841247 123.80859375 582.66015625 C120.41762694 585.48517589 117.21206878 588.47499157 114 591.5 C109.96224143 595.30261275 105.90160286 598.97524408 101.5625 602.4375 C96.19961525 606.71825963 91.24100618 611.37280381 86.30102539 616.12866211 C85.39984985 616.98729858 85.39984985 616.98729858 84.48046875 617.86328125 C83.95348389 618.37157471 83.42649902 618.87986816 82.88354492 619.40356445 C80.40500276 621.50430162 77.71044951 623.21306026 75 625 C74.74233794 604.52835414 74.54872224 584.05704005 74.43006611 563.58410549 C74.373492 554.07675714 74.29644955 544.57041981 74.17016602 535.0637207 C74.06007042 526.77166226 73.98945333 518.48033638 73.96502656 510.18756729 C73.95076037 505.80148901 73.91755859 501.41750523 73.83696938 497.03210258 C73.25820317 464.29531533 73.25820317 464.29531533 81.85974598 454.89489651 C83.21197198 453.56760663 84.6045507 452.28177019 86 451 C87.11707691 449.47681919 88.20035505 447.92641898 89.20703125 446.328125 C89.64144531 445.6575708 90.07585937 444.9870166 90.5234375 444.29614258 C90.94882812 443.62091553 91.37421875 442.94568848 91.8125 442.25 C92.29332031 441.48905029 92.77414062 440.72810059 93.26953125 439.9440918 C100.21655337 428.69616296 106.06301005 416.80048486 112 405 C112.39840088 404.22003662 112.79680176 403.44007324 113.20727539 402.63647461 C116.28632553 396.58108115 118.6741248 390.37488355 121 384 C121.4021875 382.91332031 121.804375 381.82664062 122.21875 380.70703125 C126.13112137 369.60943939 128.7421557 358.21950115 131.36279297 346.76074219 C131.86900273 344.56755445 132.40077511 342.38026988 132.94140625 340.1953125 C137.16097265 322.477552 138.15043602 304.24858004 138.5859375 286.109375 C138.62739445 284.53628355 138.66930289 282.96320392 138.71166992 281.39013672 C138.812963 277.59354014 138.908223 273.79683804 139 270 C139.5573156 269.99853344 140.1146312 269.99706688 140.68883514 269.99555588 C154.32231 269.95831676 167.95553663 269.89883168 181.58881378 269.81609726 C188.1821028 269.77674214 194.77526064 269.74449508 201.36865234 269.72900391 C207.7425295 269.71375844 214.11604574 269.67917354 220.48976135 269.63169098 C222.91033271 269.61695824 225.33095561 269.60896369 227.75157166 269.60811615 C255.1046846 269.58892294 279.18625449 263.80668163 299.625 244.578125 C304.33289088 239.46758556 308.17455314 233.7838962 312 228 C312.58910156 227.1440625 313.17820312 226.288125 313.78515625 225.40625 C324.828361 208.46015575 326.67038424 186.08418882 323.38671875 166.484375 C320.16758346 153.38093443 314.0451074 140.06944649 305 130 C304.00226563 128.79150391 304.00226563 128.79150391 302.984375 127.55859375 C290.49912858 112.85025489 274.50661342 104.54120065 256 100 C255.40003834 99.8232779 254.80007668 99.64655581 254.18193436 99.46447849 C251.4591519 98.88486716 248.91294571 98.85900231 246.12811279 98.84178162 C244.92780426 98.8319928 243.72749573 98.82220398 242.49081421 98.81211853 C241.17739044 98.80636307 239.86396667 98.8006076 238.51074219 98.79467773 C237.11115227 98.78509565 235.71156523 98.77508537 234.3119812 98.76467896 C230.51483691 98.73765962 226.71768022 98.71663398 222.92049313 98.69667697 C218.95130598 98.67479908 214.98215691 98.64741921 211.01300049 98.62062073 C203.49788627 98.57071822 195.9827509 98.52577033 188.46759534 98.48259836 C179.91141294 98.43320512 171.35526873 98.37829473 162.79912329 98.32291877 C145.19944942 98.2091362 127.5997404 98.10301738 110 98 C110 108.56 110 119.12 110 130 C109.34 129.67 108.68 129.34 108 129 C108 127.68 108 126.36 108 125 C107.34 125 106.68 125 106 125 C105.608125 124.05125 105.21625 123.1025 104.8125 122.125 C93.1117418 95.14379958 74.81855814 70.20519652 54.6953125 48.8828125 C52.59341098 46.63469174 50.59251555 44.36299607 48.625 42 C37.89081627 29.6164173 24.57288939 19.40015983 11.5625 9.5625 C10.87559082 9.04163818 10.18868164 8.52077637 9.48095703 7.98413086 C8.82853027 7.49565674 8.17610352 7.00718262 7.50390625 6.50390625 C6.92455322 6.06892822 6.3452002 5.6339502 5.74829102 5.18579102 C3.90144932 3.93315729 2.01489972 2.95428081 0 2 C0 1.34 0 0.68 0 0 Z " fill="#2285FA" transform="translate(636,357)"/>
<path d="M0 0 C103.62 0 207.24 0 314 0 C314 0.33 314 0.66 314 1 C313.22325928 1.01981934 312.44651855 1.03963867 311.64624023 1.06005859 C254.88027019 2.54153929 254.88027019 2.54153929 199 12 C197.77410156 12.29680664 197.77410156 12.29680664 196.5234375 12.59960938 C161.52020443 21.29689588 130.18590575 38.84962011 102 61 C101.18982422 61.63228516 101.18982422 61.63228516 100.36328125 62.27734375 C85.46748861 74.02138178 71.49423751 87.91537159 60 103 C58.64666338 104.64651593 57.29248785 106.29234267 55.9375 107.9375 C39.90907506 128.10739174 27.52303909 151.74526816 19 176 C18.66967773 176.93537598 18.33935547 177.87075195 17.99902344 178.83447266 C11.85695737 196.570194 8.37133965 214.43386051 6 233 C5.84692383 234.19028809 5.69384766 235.38057617 5.53613281 236.60693359 C2.41650296 261.94603946 1.86036333 287.50681979 1 313 C0.67 313 0.34 313 0 313 C0 209.71 0 106.42 0 0 Z " fill="#000000" transform="translate(0,0)"/>
<path d="M0 0 C0.33 0 0.66 0 1 0 C1.04487549 1.28124756 1.08975098 2.56249512 1.13598633 3.88256836 C2.95618772 54.96694873 5.21722424 105.13788349 25 153 C25.32194336 153.77923828 25.64388672 154.55847656 25.97558594 155.36132812 C36.60527932 180.53514166 53.41703695 203.44116657 71.74609375 223.5234375 C73.2742196 225.20252205 74.78685858 226.89580823 76.28515625 228.6015625 C80.90137549 233.84330716 85.6462019 238.52615141 91 243 C91.91007812 243.79792969 92.82015625 244.59585937 93.7578125 245.41796875 C121.97146472 270.05671215 155.02794691 288.5351781 191 299 C191.85706543 299.24975586 192.71413086 299.49951172 193.59716797 299.75683594 C231.64316029 310.50361771 273.68078463 311.13620852 313 312 C313 312.33 313 312.66 313 313 C209.71 313 106.42 313 0 313 C0 209.71 0 106.42 0 0 Z " fill="#000000" transform="translate(0,941)"/>
<path d="M0 0 C103.62 0 207.24 0 314 0 C314 102.63 314 205.26 314 311 C313.67 311 313.34 311 313 311 C312.97812622 309.95102539 312.97812622 309.95102539 312.95581055 308.88085938 C311.81360428 258.67221649 309.70951052 206.50621656 289 160 C288.62504395 159.14599609 288.25008789 158.29199219 287.86376953 157.41210938 C276.95657536 132.79028831 261.78951458 111.12664158 244 91 C243.2889209 90.1941748 243.2889209 90.1941748 242.56347656 89.37207031 C231.16875104 76.54634385 218.72325981 65.28483773 205 55 C204.13955078 54.35417969 204.13955078 54.35417969 203.26171875 53.6953125 C189.6568737 43.56077782 175.28401211 35.3229729 160 28 C159.08089844 27.55011719 158.16179687 27.10023437 157.21484375 26.63671875 C108.40788422 3.47792961 53.00639747 2.40740138 0 1 C0 0.67 0 0.34 0 0 Z " fill="#000000" transform="translate(940,0)"/>
<path d="M0 0 C0.33 0 0.66 0 1 0 C1 103.29 1 206.58 1 313 C-102.62 313 -206.24 313 -313 313 C-313 312.67 -313 312.34 -313 312 C-311.76999268 311.95512451 -310.53998535 311.91024902 -309.27270508 311.86401367 C-256.68343525 310.28356857 -256.68343525 310.28356857 -204.74023438 302.58789062 C-202.33678588 302.07225413 -199.93065087 301.59799952 -197.515625 301.140625 C-167.63608934 295.19046376 -139.64631329 280.49795837 -115 263 C-113.99195313 262.30519531 -112.98390625 261.61039063 -111.9453125 260.89453125 C-104.74547972 255.83377922 -98.1374888 250.11750643 -91.52294922 244.32763672 C-90.27575302 243.24038874 -89.0164835 242.16700428 -87.75390625 241.09765625 C-77.82492607 232.65492674 -68.9925542 223.27985426 -61 213 C-60.27127686 212.07791748 -60.27127686 212.07791748 -59.52783203 211.13720703 C-41.23122799 187.97502407 -26.38500008 163.10924457 -17 135 C-16.69223633 134.08202637 -16.38447266 133.16405273 -16.06738281 132.21826172 C-2.07930913 89.60360256 -1.56129562 44.39461413 0 0 Z " fill="#000000" transform="translate(1253,941)"/>
<path d="M0 0 C32.07695858 -0.0686529 64.15389598 -0.12163943 96.23091102 -0.15319599 C100.03040564 -0.15694746 103.82990012 -0.16083049 107.62939453 -0.16479492 C108.76386151 -0.16597532 108.76386151 -0.16597532 109.92124701 -0.16717956 C122.11709147 -0.18018184 134.31289288 -0.20380664 146.50871193 -0.23145839 C159.05196279 -0.2596576 171.59519131 -0.27620668 184.13847256 -0.28226548 C191.85881554 -0.28635208 199.57903677 -0.29918898 207.29934222 -0.3237494 C213.25058818 -0.34170071 219.20177396 -0.34332951 225.15304756 -0.33932304 C227.57148544 -0.34013901 229.98992853 -0.34597888 232.40833855 -0.35761642 C244.54046416 -0.41306454 256.45442376 -0.07357105 268.50830078 1.39628601 C269.53581388 1.52105153 270.56332699 1.64581705 271.62197685 1.77436334 C278.73774401 2.73774401 278.73774401 2.73774401 281 5 C274.18655606 5.11088788 267.58628058 5.16943644 260.93070698 3.47235966 C256.61485617 2.77674804 252.34827204 2.86636853 247.98368835 2.87974548 C246.96669524 2.87889106 245.94970214 2.87803663 244.90189105 2.87715632 C241.49015886 2.87550767 238.07847572 2.88101288 234.66674805 2.88647461 C232.22269187 2.88675664 229.7786356 2.88659844 227.33457947 2.8860321 C222.0706335 2.8858043 216.80670283 2.8886429 211.54276085 2.89426994 C203.93200584 2.90240038 196.32125683 2.90500175 188.71049795 2.90625793 C176.3622524 2.90844602 164.01401345 2.91509953 151.66577148 2.92456055 C139.67130567 2.93374094 127.67684166 2.94081871 115.68237305 2.94506836 C114.57318112 2.94546244 114.57318112 2.94546244 113.44158127 2.94586449 C109.73188478 2.94716954 106.02218828 2.94843324 102.31249177 2.94967639 C71.54165638 2.96004144 40.77082919 2.97772755 10 3 C9.67 3.99 9.34 4.98 9 6 C9.515625 6.226875 10.03125 6.45375 10.5625 6.6875 C13.37109228 8.19981892 15.7935102 10.03241543 18.31640625 11.9765625 C20.09887619 13.25972184 20.09887619 13.25972184 23 13 C24.5 15.25 24.5 15.25 26 18 C26.98244845 19.34631825 27.97676564 20.68441297 29 22 C25.18746519 20.32913123 22.06365702 17.86426363 18.8125 15.3125 C18.24096191 14.86914307 17.66942383 14.42578613 17.08056641 13.96899414 C14.45995674 11.93388675 11.85277812 9.88314394 9.25390625 7.8203125 C8.46886719 7.19898438 7.68382812 6.57765625 6.875 5.9375 C6.19179688 5.38964844 5.50859375 4.84179688 4.8046875 4.27734375 C2.91939675 2.81204287 2.91939675 2.81204287 0 2 C0 1.34 0 0.68 0 0 Z " fill="#0A9AC7" transform="translate(636,357)"/>
<path d="M0 0 C-0.33 0.66 -0.66 1.32 -1 2 C-2.93359375 2.4921875 -2.93359375 2.4921875 -5.4375 2.875 C-10.1619354 3.72539837 -14.27096185 5.18892586 -18.6796875 7.0546875 C-21.71996588 8.29331943 -24.83697484 9.13171858 -28 10 C-34.85289608 12.52475119 -41.46928563 15.69427011 -47.97265625 19.00390625 C-50.10205092 20.05014062 -52.25927856 20.99750496 -54.4375 21.9375 C-67.11736949 27.5467304 -79.56690615 35.27703377 -90.46875 43.8359375 C-92 45 -92 45 -94.6875 46.5625 C-97.17955197 47.99019396 -97.17955197 47.99019396 -99.5 50.5 C-102 53 -102 53 -104.3984375 54.4375 C-119.77977005 63.67553757 -134.35057221 80.71868643 -145 95 C-145.41620605 95.55042969 -145.83241211 96.10085938 -146.26123047 96.66796875 C-155.71782416 109.19073986 -164.8642506 121.9920374 -172 136 C-172.53625 137.04542969 -173.0725 138.09085938 -173.625 139.16796875 C-176.50047088 144.80062973 -176.50047088 144.80062973 -179.03515625 150.58984375 C-179.9561121 152.8903691 -181.02164081 155.00300616 -182.1875 157.1875 C-188.88533842 170.52390393 -193.30246958 184.58474315 -197 199 C-197.33 199 -197.66 199 -198 199 C-197.60557396 191.56023941 -196.02885432 185.11335231 -193.5 178.125 C-193.14470215 177.12758789 -192.7894043 176.13017578 -192.42333984 175.10253906 C-181.88345747 146.09140932 -166.97441679 119.29667341 -148 95 C-147.26265625 94.04738281 -146.5253125 93.09476562 -145.765625 92.11328125 C-126.72864496 68.17392101 -103.83896328 48.26209907 -78 32 C-77.36191406 31.59716797 -76.72382813 31.19433594 -76.06640625 30.77929688 C-23.32675512 -2.16993071 -23.32675512 -2.16993071 0 0 Z " fill="#03B3E8" transform="translate(405,349)"/>
<path d="M0 0 C17.25469061 -0.02336131 34.50937629 -0.04099508 51.76407909 -0.05181217 C59.77574886 -0.05696825 67.7874088 -0.06399787 75.79907227 -0.07543945 C82.78210641 -0.08540728 89.76513343 -0.09185844 96.74817449 -0.09408849 C100.44555595 -0.09539203 104.14291704 -0.09845534 107.84029198 -0.10573006 C111.96800006 -0.11378559 116.09567275 -0.11398978 120.22338867 -0.11352539 C121.44906052 -0.11712067 122.67473236 -0.12071594 123.93754578 -0.12442017 C125.06350159 -0.1230455 126.1894574 -0.12167084 127.34953308 -0.12025452 C128.32571185 -0.12117631 129.30189062 -0.1220981 130.30765057 -0.12304783 C132.97468656 -0.00115689 135.3999907 0.41138966 138 1 C139.38366272 1.24475586 140.76777599 1.48697935 142.15234375 1.7265625 C152.81888235 3.6851991 161.59301643 6.53689045 171 12 C171 12.66 171 13.32 171 14 C170.00226563 13.5978125 170.00226563 13.5978125 168.984375 13.1875 C165.41534989 11.76736436 161.83754059 10.37250606 158.25 9 C157.25226563 8.60941406 157.25226563 8.60941406 156.234375 8.2109375 C146.42054943 4.47413469 137.43156132 3.69864206 126.94311523 3.68115234 C125.54278494 3.67183808 124.14246013 3.66166721 122.74214172 3.65071106 C118.96594715 3.62356566 115.18978956 3.6083079 111.41352344 3.59528303 C107.45769209 3.57958433 103.50193551 3.55281582 99.54615784 3.5272522 C92.06663355 3.48058317 84.58709501 3.44378183 77.10750014 3.41057932 C68.58745553 3.3722737 60.06748624 3.32288582 51.54750526 3.27259517 C34.03172476 3.16945209 16.51590057 3.08013474 -1 3 C-0.67 2.01 -0.34 1.02 0 0 Z " fill="#098EDE" transform="translate(747,452)"/>
<path d="M0 0 C-0.89525391 0.4021875 -0.89525391 0.4021875 -1.80859375 0.8125 C-3.70015581 1.66693516 -5.58918262 2.52699102 -7.4765625 3.390625 C-9.3031444 4.22493957 -11.13027002 5.0581713 -12.96386719 5.87695312 C-27.28091227 12.27176416 -40.03896793 19.75338253 -52 30 C-53.16015625 30.99386719 -53.16015625 30.99386719 -54.34375 32.0078125 C-56.9413432 34.29335716 -59.47603262 36.63333371 -62 39 C-62.53141602 39.49209961 -63.06283203 39.98419922 -63.61035156 40.49121094 C-81.68164577 57.34467949 -93.68604607 78.26611029 -105 100 C-105.33 99.34 -105.66 98.68 -106 98 C-105.09075196 95.59316696 -104.09031809 93.32755847 -103 91 C-102.23816406 89.34097656 -102.23816406 89.34097656 -101.4609375 87.6484375 C-99.98097268 84.42898796 -98.4931261 81.213362 -97 78 C-96.34 78 -95.68 78 -95 78 C-94.67 76.35 -94.34 74.7 -94 73 C-93.34 73 -92.68 73 -92 73 C-91.34 71.02 -90.68 69.04 -90 67 C-89.34 67 -88.68 67 -88 67 C-87.731875 66.030625 -87.46375 65.06125 -87.1875 64.0625 C-86.795625 63.051875 -86.40375 62.04125 -86 61 C-84.515 60.505 -84.515 60.505 -83 60 C-81.99083967 58.23408113 -81.99083967 58.23408113 -81 56 C-75.54545455 47.27272727 -75.54545455 47.27272727 -71 45 C-70.31513275 43.67592331 -69.65129797 42.34090759 -69 41 C-67.5625 38.75 -67.5625 38.75 -66 37 C-65.01 37 -64.02 37 -63 37 C-63 36.34 -63 35.68 -63 35 C-62.01 35 -61.02 35 -60 35 C-59.7525 34.401875 -59.505 33.80375 -59.25 33.1875 C-57.81927475 30.68373081 -56.4308418 29.51927612 -54 28 C-53.34 28 -52.68 28 -52 28 C-52 27.34 -52 26.68 -52 26 C-51.34 26 -50.68 26 -50 26 C-49.505 24.515 -49.505 24.515 -49 23 C-47.34795544 22.29788106 -45.68076231 21.63028587 -44 21 C-43.67 20.34 -43.34 19.68 -43 19 C-42.01 19 -41.02 19 -40 19 C-39.505 17.515 -39.505 17.515 -39 16 C-36.67793475 15.29508733 -34.34406932 14.62787571 -32 14 C-31.67 13.34 -31.34 12.68 -31 12 C-28.49725564 10.63808257 -26.00102821 9.3619311 -23.4375 8.125 C-22.74591797 7.78597656 -22.05433594 7.44695312 -21.34179688 7.09765625 C-19.93993228 6.4104421 -18.53676109 5.72588717 -17.13232422 5.04394531 C-14.32194597 3.66803767 -11.53323806 2.25041698 -8.74633789 0.82763672 C-5.36003395 -0.77722423 -3.53490928 -1.09704081 0 0 Z " fill="#06ACED" transform="translate(422,451)"/>
<path d="M0 0 C8.77790901 7.25131614 16.62332438 15.34234478 24 24 C24.89095625 25.01647677 25.78297339 26.03202418 26.67578125 27.046875 C34.24716293 35.7007755 41.23026257 44.70871099 48 54 C48.47155518 54.63510498 48.94311035 55.27020996 49.42895508 55.92456055 C51.89572328 59.28681448 53.61636578 61.78002357 54 66 C54.66 66 55.32 66 56 66 C57.60631936 68.87380221 59.20966215 71.74925477 60.8125 74.625 C61.26431641 75.43324219 61.71613281 76.24148438 62.18164062 77.07421875 C62.84389648 78.26337891 62.84389648 78.26337891 63.51953125 79.4765625 C63.92276611 80.19924316 64.32600098 80.92192383 64.74145508 81.66650391 C66.22228342 84.41214062 67.6049105 87.209821 69 90 C69.33 83.07 69.66 76.14 70 69 C70.33 69 70.66 69 71 69 C71 78.57 71 88.14 71 98 C70.67 97.34 70.34 96.68 70 96 C69.34 96 68.68 96 68 96 C67.608125 95.05125 67.21625 94.1025 66.8125 93.125 C55.11653137 66.15484402 36.83278122 41.22827494 16.72265625 19.91015625 C14.47522226 17.50794919 12.31454137 15.07021992 10.1875 12.5625 C7.49495633 9.41898843 4.56680501 6.84135153 1.28515625 4.32421875 C0 3 0 3 0 0 Z " fill="#08A5EF" transform="translate(674,386)"/>
<path d="M0 0 C0.598125 0.34675781 1.19625 0.69351563 1.8125 1.05078125 C-19.42652246 6.0377746 -40.26356077 8.32469167 -62.0625 8.36328125 C-62.87158813 8.36686646 -63.68067627 8.37045166 -64.51428223 8.37414551 C-76.52085906 8.40279209 -88.2726278 7.50945551 -100.1875 6.05078125 C-99.8575 5.06078125 -99.5275 4.07078125 -99.1875 3.05078125 C-95.67027846 2.95028921 -92.62209218 3.33191312 -89.1875 4.05078125 C-83.51326034 4.87837041 -78.02619265 5.19857479 -72.296875 5.18359375 C-71.47100891 5.18455048 -70.64514282 5.1855072 -69.79425049 5.18649292 C-68.05635501 5.1871694 -66.31845694 5.18535249 -64.58056641 5.18115234 C-61.95859923 5.17582413 -59.33680549 5.18110137 -56.71484375 5.1875 C-46.63263872 5.19168738 -36.58659065 5.17342873 -26.625 3.42578125 C-24.1875 3.05078125 -24.1875 3.05078125 -21.1875 4.05078125 C-21.1875 3.39078125 -21.1875 2.73078125 -21.1875 2.05078125 C-20.00994141 1.97730469 -20.00994141 1.97730469 -18.80859375 1.90234375 C-11.89183065 1.47251691 -11.89183065 1.47251691 -5.1875 -0.13671875 C-2.1875 -0.94921875 -2.1875 -0.94921875 0 0 Z " fill="#4B4BD1" transform="translate(536.1875,905.94921875)"/>
<path d="M0 0 C3.58005238 0.68554194 6.38940739 2.17179268 9.5625 3.9375 C10.51253906 4.46214844 11.46257813 4.98679687 12.44140625 5.52734375 C14.33489161 6.61718189 16.18219689 7.78813126 18 9 C18 9.66 18 10.32 18 11 C18.72574219 11.2578125 19.45148437 11.515625 20.19921875 11.78125 C23.12047667 13.05242499 25.30872649 14.54016402 27.8125 16.5 C28.99779297 17.41265625 28.99779297 17.41265625 30.20703125 18.34375 C30.79871094 18.8903125 31.39039063 19.436875 32 20 C32 20.66 32 21.32 32 22 C32.56203125 22.2371875 33.1240625 22.474375 33.703125 22.71875 C36.51894042 24.28947697 38.47955416 26.21471464 40.75 28.5 C41.54921875 29.2940625 42.3484375 30.088125 43.171875 30.90625 C45 33 45 33 45 35 C45.99 35.33 46.98 35.66 48 36 C49.66196899 37.94901027 51.18446502 39.87352373 52.6875 41.9375 C53.10322266 42.48857422 53.51894531 43.03964844 53.94726562 43.60742188 C57 47.73287408 57 47.73287408 57 50 C57.66 50 58.32 50 59 50 C60.4088974 51.84037223 61.72840298 53.74971704 63 55.6875 C63.70125 56.74324219 64.4025 57.79898438 65.125 58.88671875 C66.73769598 61.56446603 67.95452347 64.06504244 69 67 C68.01 67.495 68.01 67.495 67 68 C66.45472656 67.04480469 65.90945313 66.08960938 65.34765625 65.10546875 C60.52285184 56.78203266 55.38418688 49.23911277 49 42 C48.26910156 41.15953125 47.53820312 40.3190625 46.78515625 39.453125 C44.55895286 36.93348531 42.29169373 34.46014301 40 32 C39.27683594 31.21109375 38.55367187 30.4221875 37.80859375 29.609375 C27.46290226 18.75602691 15.16965974 9.92014447 2.24609375 2.390625 C1.50488281 1.93171875 0.76367188 1.4728125 0 1 C0 0.67 0 0.34 0 0 Z " fill="#0D93EA" transform="translate(554,462)"/>
<path d="M0 0 C2.16874252 0.50603992 3.99967627 0.99983813 6 2 C6 2.66 6 3.32 6 4 C6.87398437 4.15662109 6.87398437 4.15662109 7.765625 4.31640625 C10.33645423 5.10293617 11.7340058 6.17565891 13.75 7.9375 C14.36359375 8.46214844 14.9771875 8.98679687 15.609375 9.52734375 C17 11 17 11 17 13 C17.66 13 18.32 13 19 13 C20.625 14.375 20.625 14.375 22 16 C22 16.66 22 17.32 22 18 C22.99 18.33 23.98 18.66 25 19 C32.07801884 28.64764742 39.6964311 41.26767397 41.6640625 53.1171875 C41.98463803 55.25053791 41.98463803 55.25053791 43.1875 58.125 C44.19991798 61.70740207 43.72308269 64.38458657 43 68 C42.67 68 42.34 68 42 68 C41.84144531 67.06800781 41.68289063 66.13601563 41.51953125 65.17578125 C36.50045094 37.75108278 22.6580785 16.90886362 0 1 C0 0.67 0 0.34 0 0 Z " fill="#0E97EE" transform="translate(919,466)"/>
<path d="M0 0 C12.90968828 -0.04653699 25.81935629 -0.0819771 38.72911167 -0.10362434 C44.72495571 -0.11401892 50.72074195 -0.12809831 56.71655273 -0.15087891 C62.51319375 -0.17276254 68.3097795 -0.18460107 74.10645866 -0.18975449 C76.30740159 -0.19342257 78.50834183 -0.2005846 80.70926094 -0.21146011 C106.13354864 -0.33198453 106.13354864 -0.33198453 116 2 C116.99 2.99 116.99 2.99 118 4 C111.1580823 4.11135128 104.56115571 4.13596411 97.87174988 2.46995544 C93.87691866 1.81621025 89.96780796 1.88612759 85.92700195 1.91821289 C84.57010254 1.92281273 84.57010254 1.92281273 83.18579102 1.92750549 C81.22693809 1.93464509 79.26809233 1.94402698 77.30925941 1.95540047 C74.21244965 1.9728014 71.11569152 1.98309242 68.0188446 1.99131775 C59.21588256 2.01576974 50.41299056 2.05148177 41.61010742 2.09594727 C36.22273911 2.1226643 30.8354106 2.13974818 25.44798851 2.15081596 C23.39259552 2.15703956 21.3372105 2.16706191 19.28185463 2.18089485 C16.41612244 2.20001901 13.55060165 2.20699377 10.68481445 2.21118164 C9.40295509 2.22432404 9.40295509 2.22432404 8.09519958 2.23773193 C2.22789702 2.22789702 2.22789702 2.22789702 0 0 Z " fill="#0CB3FC" transform="translate(799,358)"/>
<path d="M0 0 C0.99 0 1.98 0 3 0 C2.3957008 4.83439358 0.94146002 9.03915966 -0.9375 13.5 C-3.07922161 18.64999419 -3.07922161 18.64999419 -4.94140625 23.90625 C-20.24143184 68.62071592 -20.24143184 68.62071592 -33 75 C-32.35632481 72.04705712 -31.40722839 69.51718012 -30.0625 66.8125 C-29.72347656 66.11769531 -29.38445313 65.42289063 -29.03515625 64.70703125 C-28 63 -28 63 -26 62 C-24.94952356 59.68895182 -23.94992562 57.35416349 -23 55 C-22.67 54.34 -22.34 53.68 -22 53 C-21.34 53 -20.68 53 -20 53 C-19.62875 51.205625 -19.62875 51.205625 -19.25 49.375 C-18.25336253 45.301786 -16.4423313 42.41926382 -14 39 C-14 38.34 -14 37.68 -14 37 C-13.34 37 -12.68 37 -12 37 C-11.9175 36.175 -11.835 35.35 -11.75 34.5 C-11.12361754 31.57688185 -10.55731885 29.96296778 -9.1875 27.42578125 C-6.74677526 22.66384615 -4.98785076 17.74069267 -3.25 12.6875 C-2.93417969 11.79482422 -2.61835937 10.90214844 -2.29296875 9.98242188 C-0.54049153 5.10604939 -0.54049153 5.10604939 0 0 Z " fill="#5066F2" transform="translate(735,717)"/>
<path d="M0 0 C2.09960508 0.01005605 4.19921485 0.01917723 6.29882812 0.02734375 C11.38683701 0.04913504 16.47461512 0.08351834 21.5625 0.125 C21.5625 0.455 21.5625 0.785 21.5625 1.125 C20.41249512 1.14481934 19.26249023 1.16463867 18.07763672 1.18505859 C13.79470615 1.26136046 9.51210444 1.35003946 5.22949219 1.44238281 C3.37897249 1.48057122 1.52838113 1.51544151 -0.32226562 1.546875 C-2.98854107 1.59274641 -5.65432748 1.65070359 -8.3203125 1.7109375 C-9.55347702 1.72826431 -9.55347702 1.72826431 -10.81155396 1.74594116 C-15.4204546 1.86329454 -19.06912462 2.51142679 -23.4375 4.125 C-25.77083333 4.125 -28.10416667 4.125 -30.4375 4.125 C-31.75715579 4.38236026 -33.06975591 4.67741116 -34.375 5 C-38.80306659 6.07254208 -43.23449368 6.68956662 -47.75 7.25 C-48.79111938 7.38124268 -48.79111938 7.38124268 -49.85327148 7.51513672 C-53.08675183 7.90552655 -56.17352906 8.125 -59.4375 8.125 C-59.4375 7.465 -59.4375 6.805 -59.4375 6.125 C-56.25144637 5.4924848 -53.06340992 4.8705187 -49.875 4.25 C-48.56112305 3.98896484 -48.56112305 3.98896484 -47.22070312 3.72265625 C-44.29799493 3.15697079 -41.3707742 2.63307555 -38.4375 2.125 C-37.36894775 1.93534668 -36.30039551 1.74569336 -35.19946289 1.55029297 C-23.48011679 -0.28602306 -11.83189922 -0.09941984 0 0 Z " fill="#0889BD" transform="translate(473.4375,338.875)"/>
<path d="M0 0 C0.66 0.66 1.32 1.32 2 2 C1.43152344 2.6290625 0.86304688 3.258125 0.27734375 3.90625 C-3.33173026 7.90695975 -6.93229303 11.90779665 -10.4375 16 C-20.40624177 27.32811565 -34.27194131 42.02293189 -49 47 C-49.99 46.67 -50.98 46.34 -52 46 C-51.01902344 45.42894531 -50.03804687 44.85789062 -49.02734375 44.26953125 C-29.8724416 32.86370121 -13.68048679 17.54971537 0 0 Z " fill="#4260E8" transform="translate(609,743)"/>
<path d="M0 0 C19.13100408 -0.4034285 40.12817553 5.37669445 58 12 C54.3359375 14.0859375 54.3359375 14.0859375 51.3125 13.3125 C49.6728125 12.6628125 49.6728125 12.6628125 48 12 C43.0031418 10.22373802 38.25582859 8.7998 33 8 C31.95328125 7.68289063 30.9065625 7.36578125 29.828125 7.0390625 C25.82381537 5.95217846 21.98664664 5.38441811 17.875 4.9375 C13.54439839 4.44777776 9.2626086 3.93030098 5 3 C3.6078125 2.7215625 3.6078125 2.7215625 2.1875 2.4375 C1.465625 2.293125 0.74375 2.14875 0 2 C0 1.34 0 0.68 0 0 Z " fill="#089EEB" transform="translate(506,341)"/>
<path d="M0 0 C0.99 0.33 1.98 0.66 3 1 C3.11368403 7.75788425 2.97196778 14.30422194 2 21 C1.67 21.33 1.34 21.66 1 22 C0.62525768 23.36429627 0.29996746 24.74233748 0 26.125 C-0.17917969 26.9396875 -0.35835937 27.754375 -0.54296875 28.59375 C-1.07809447 31.18905364 -1.07809447 31.18905364 -1.3125 34.625 C-2.22606734 39.10978513 -4.16477849 41.43779861 -7 45 C-8.09743659 41.70769022 -7.97783702 41.23862055 -6.8203125 38.1640625 C-6.55089844 37.42929687 -6.28148437 36.69453125 -6.00390625 35.9375 C-5.71386719 35.174375 -5.42382812 34.41125 -5.125 33.625 C-4.56194055 32.11836603 -4.0019596 30.61057737 -3.4453125 29.1015625 C-3.19281738 28.43463379 -2.94032227 27.76770508 -2.68017578 27.08056641 C-1.38897004 23.13094138 -0.87050726 19.27551781 -0.68359375 15.13671875 C-0.64169922 14.25048828 -0.59980469 13.36425781 -0.55664062 12.45117188 C-0.51732422 11.53916016 -0.47800781 10.62714844 -0.4375 9.6875 C-0.39431641 8.75615234 -0.35113281 7.82480469 -0.30664062 6.86523438 C-0.20102775 4.57695546 -0.09892248 2.28857628 0 0 Z " fill="#1192F1" transform="translate(961,535)"/>
<path d="M0 0 C-1.0300033 2.91114704 -1.73699383 3.85885472 -4.50390625 5.34375 C-5.51324219 5.7253125 -6.52257812 6.106875 -7.5625 6.5 C-11.17842864 7.89182689 -14.72623885 9.32795459 -18.23828125 10.9609375 C-23.23583188 13.20218033 -28.34889653 14.68813609 -33.625 16.125 C-34.52734375 16.37636719 -35.4296875 16.62773438 -36.359375 16.88671875 C-38.11046688 17.37426765 -39.86262823 17.85799589 -41.6159668 18.33740234 C-43.71128949 18.91975829 -45.79012849 19.54080603 -47.87109375 20.171875 C-51.79425247 21.21021414 -54.96769953 21.14148423 -59 21 C-56.26299028 19.52151396 -53.79756249 18.61370068 -50.75390625 17.9921875 C-34.39766007 14.47589729 -18.30425903 9.6912303 -3.86328125 1.03125 C-2 0 -2 0 0 0 Z " fill="#455CE1" transform="translate(557,790)"/>
<path d="M0 0 C8.77684472 7.25043694 16.62827924 15.33931431 24 24 C24.98487201 25.1335125 25.97062872 26.26625663 26.95703125 27.3984375 C28.03406608 28.64044127 29.11088754 29.88263009 30.1875 31.125 C30.69909668 31.71120117 31.21069336 32.29740234 31.73779297 32.90136719 C34.79543063 36.44810685 37.48419917 40.04917196 40 44 C39.505 44.99 39.505 44.99 39 46 C37.96760551 44.76500618 36.93536761 43.52988121 35.90380859 42.29418945 C34.99453775 41.20501737 34.08468854 40.11632792 33.17431641 39.02807617 C31.05438519 36.48862867 28.95324907 33.94119271 26.89453125 31.3515625 C22.08744694 25.30783948 16.96829882 19.63241724 11.6875 14 C10.99317871 13.2572583 10.29885742 12.5145166 9.58349609 11.74926758 C8.92043457 11.04825928 8.25737305 10.34725098 7.57421875 9.625 C6.68609497 8.68527344 6.68609497 8.68527344 5.7800293 7.7265625 C4.01632693 5.92144936 4.01632693 5.92144936 1.77661133 4.4609375 C1.19032959 3.97882813 0.60404785 3.49671875 0 3 C0 2.01 0 1.02 0 0 Z " fill="#04ABE8" transform="translate(674,386)"/>
<path d="M0 0 C0 0.33 0 0.66 0 1 C-0.94746094 1.01401855 -0.94746094 1.01401855 -1.9140625 1.02832031 C-17.08540491 1.30704454 -31.5844261 2.7624369 -46.49267578 5.55859375 C-49.9839107 6.17321427 -53.47801073 6.60175386 -57 7 C-54.23856256 5.15904171 -52.6672907 4.51206833 -49.53515625 3.74609375 C-48.2212793 3.42439209 -48.2212793 3.42439209 -46.88085938 3.09619141 C-30.77948537 -0.66693291 -16.45723672 -1.01990464 0 0 Z " fill="#0898DA" transform="translate(483,442)"/>
<path d="M0 0 C0.598125 0.34675781 1.19625 0.69351563 1.8125 1.05078125 C-27.83643617 7.62524934 -27.83643617 7.62524934 -43.1875 7.05078125 C-42.8575 6.39078125 -42.5275 5.73078125 -42.1875 5.05078125 C-39.67578125 4.671875 -39.67578125 4.671875 -36.5 4.48828125 C-33.13814963 4.26868295 -29.94697891 4.00858457 -26.625 3.42578125 C-24.1875 3.05078125 -24.1875 3.05078125 -21.1875 4.05078125 C-21.1875 3.39078125 -21.1875 2.73078125 -21.1875 2.05078125 C-20.00994141 1.97730469 -20.00994141 1.97730469 -18.80859375 1.90234375 C-11.89183065 1.47251691 -11.89183065 1.47251691 -5.1875 -0.13671875 C-2.1875 -0.94921875 -2.1875 -0.94921875 0 0 Z " fill="#5951E3" transform="translate(536.1875,905.94921875)"/>
<path d="M0 0 C2.5 1.375 2.5 1.375 5 3 C5 3.66 5 4.32 5 5 C5.70125 5.226875 6.4025 5.45375 7.125 5.6875 C9.9468261 6.97572496 11.81801367 8.54152889 14.12890625 10.5703125 C17.28696951 12.98336293 20.80508771 14.72749284 24.31640625 16.5703125 C29.533538 19.34974513 29.533538 19.34974513 32 21 C32 21.66 32 22.32 32 23 C32.94875 23.309375 33.8975 23.61875 34.875 23.9375 C38 25 38 25 40 26 C40 26.66 40 27.32 40 28 C35.81316459 26.47322167 32.05489512 24.41763493 28.25 22.125 C27.60893311 21.73932861 26.96786621 21.35365723 26.30737305 20.95629883 C21.01226791 17.71810164 15.88994446 14.25576025 10.8125 10.6875 C10.09416992 10.18428223 9.37583984 9.68106445 8.63574219 9.16259766 C5.13093754 6.66523686 1.9272107 4.18438167 -1 1 C-0.67 0.67 -0.34 0.34 0 0 Z " fill="#3269E9" transform="translate(304,853)"/>
<path d="M0 0 C0.66 0.99 1.32 1.98 2 3 C1.41992188 3.74443359 1.41992188 3.74443359 0.828125 4.50390625 C-2.0258955 8.22684884 -4.48205546 11.87710999 -6.734375 16 C-10.24359466 21.54543353 -14.52191051 27.34794034 -20 31 C-18.58540735 26.90434693 -16.60879966 23.95933784 -13.9375 20.5625 C-8.87278079 13.96027675 -4.4114439 7.04996709 0 0 Z " fill="#4654DC" transform="translate(731,794)"/>
<path d="M0 0 C1.69413227 2.94244027 2.07153263 3.64233684 1.375 7.125 C0.12454888 10.90040051 -1.41355574 14.56562437 -2.92578125 18.2421875 C-4.46052978 22.18230555 -5.7169775 26.20178603 -6.97265625 30.23828125 C-8.03758892 33.10104702 -9.24636452 35.49936136 -11 38 C-11.66 38 -12.32 38 -13 38 C-11.26018848 32.49059687 -9.26438521 27.1522778 -7.0625 21.8125 C-4.13461646 14.67464727 -1.95447381 7.4614912 0 0 Z " fill="#3471EE" transform="translate(764,719)"/>
<path d="M0 0 C0.66 0 1.32 0 2 0 C1.85656032 1.68770515 1.71011431 3.37515486 1.5625 5.0625 C1.48128906 6.00222656 1.40007812 6.94195313 1.31640625 7.91015625 C1.09967903 10.0265912 0.82445441 12.13761769 0.5 14.24023438 C0.00889014 17.93315035 -0.20457439 21.52369055 -0.31640625 25.24609375 C-0.33718735 25.90207047 -0.35796844 26.55804718 -0.37937927 27.23390198 C-0.44405938 29.30167546 -0.50337466 31.36956101 -0.5625 33.4375 C-0.60576307 34.85092242 -0.64937965 36.26433407 -0.69335938 37.67773438 C-0.79965516 41.11837471 -0.90114472 44.55913692 -1 48 C-1.33 48 -1.66 48 -2 48 C-3.89359129 10.48885818 -3.89359129 10.48885818 0 0 Z " fill="#1099DF" transform="translate(304,589)"/>
<path d="M0 0 C0.99 0.495 0.99 0.495 2 1 C2.47070312 2.99023438 2.47070312 2.99023438 2.78125 5.59375 C2.90113281 6.5425 3.02101562 7.49125 3.14453125 8.46875 C3.26183594 9.4690625 3.37914062 10.469375 3.5 11.5 C4.25659109 17.7522692 5.06553924 23.87560767 6.60302734 29.98999023 C7.26624186 33.34807456 7.12405653 36.58844535 7 40 C4.68799827 37.68799827 4.55119784 36.70301094 3.96484375 33.5546875 C3.71105957 32.19657959 3.71105957 32.19657959 3.45214844 30.81103516 C3.19739746 29.35769775 3.19739746 29.35769775 2.9375 27.875 C2.7612207 26.89192871 2.58494141 25.90885742 2.40332031 24.89599609 C0.97699903 16.59825743 0.24107975 8.41368342 0 0 Z " fill="#0897E2" transform="translate(197,653)"/>
<path d="M0 0 C5.96576083 1.3856401 11.63702225 3.17804402 17.375 5.3125 C18.20555908 5.61937744 19.03611816 5.92625488 19.8918457 6.24243164 C25.79473867 8.45998777 31.48585793 10.92398758 37 14 C36.34 14.66 35.68 15.32 35 16 C35 15.34 35 14.68 35 14 C34.195625 13.9175 33.39125 13.835 32.5625 13.75 C28.86603261 12.97179634 25.96033572 11.69264782 22.55859375 10.109375 C18.75274106 8.45920376 14.83023592 7.22669614 10.88671875 5.94921875 C7.21209777 4.74091984 3.60988887 3.3884188 0 2 C0 1.34 0 0.68 0 0 Z " fill="#0F98EE" transform="translate(931,364)"/>
<path d="M0 0 C-0.33 0.66 -0.66 1.32 -1 2 C-2.93359375 2.4921875 -2.93359375 2.4921875 -5.4375 2.875 C-10.14135652 3.72048634 -14.20888544 5.19607812 -18.6015625 7.0390625 C-22.05990139 8.42465104 -25.32837692 9.34435302 -29 10 C-29.66 9.34 -30.32 8.68 -31 8 C-27.15175419 6.64913953 -23.29557094 5.32251187 -19.4375 4 C-18.35146484 3.6184375 -17.26542969 3.236875 -16.14648438 2.84375 C-10.57423379 0.94681363 -5.90030129 -0.54177802 0 0 Z " fill="#05A7DF" transform="translate(405,349)"/>
<path d="M0 0 C0.66 0.66 1.32 1.32 2 2 C-6.42855085 9.99631747 -14.87257369 17.80047892 -24 25 C-25.66711962 26.33276694 -27.33391194 27.66594373 -29 29 C-27.39527513 24.74443215 -24.17874598 22.14056643 -20.875 19.1875 C-20.00029053 18.39508911 -20.00029053 18.39508911 -19.10791016 17.58666992 C-17.94434878 16.53502041 -16.77821995 15.48620368 -15.609375 14.44042969 C-14.22266144 13.1992874 -12.8448346 11.94822904 -11.46875 10.6953125 C-6.39313187 6.13104396 -6.39313187 6.13104396 -3 5 C-3 4.34 -3 3.68 -3 3 C-1.5 1.375 -1.5 1.375 0 0 Z " fill="#624CE7" transform="translate(756,939)"/>
<path d="M0 0 C0.83378174 0.1743457 1.66756348 0.34869141 2.52661133 0.52832031 C10.41149768 2.32394078 17.08475481 5.44767164 24.0625 9.5 C24.0625 10.16 24.0625 10.82 24.0625 11.5 C21.25861308 10.38165579 18.46146804 9.2514165 15.671875 8.09765625 C5.92934539 4.17682032 -3.5510928 1.96540894 -13.9375 0.5 C-13.9375 0.17 -13.9375 -0.16 -13.9375 -0.5 C-9.04282701 -1.99696236 -4.87791425 -1.03613761 0 0 Z " fill="#0F97EA" transform="translate(893.9375,454.5)"/>
<path d="M0 0 C7.12409227 2.24660171 13.91209568 5.0001452 20.75 8 C21.76449219 8.43828125 22.77898438 8.8765625 23.82421875 9.328125 C28.40622963 11.32711003 32.74694212 13.35687826 37 16 C35 17 35 17 31.875 16.0625 C30.451875 15.5365625 30.451875 15.5365625 29 15 C29 14.34 29 13.68 29 13 C28.13375 12.896875 27.2675 12.79375 26.375 12.6875 C22.78325976 11.95584921 20.22842795 10.7130434 17 9 C11.39234254 6.51968997 5.69976225 4.2592619 0 2 C0 1.34 0 0.68 0 0 Z " fill="#0C96EA" transform="translate(566,354)"/>
<path d="M0 0 C2.31 0 4.62 0 7 0 C6.67 1.32 6.34 2.64 6 4 C6.515625 4.226875 7.03125 4.45375 7.5625 4.6875 C10.37109228 6.19981892 12.7935102 8.03241543 15.31640625 9.9765625 C17.09887619 11.25972184 17.09887619 11.25972184 20 11 C21.5 13.25 21.5 13.25 23 16 C23.98244845 17.34631825 24.97676564 18.68441297 26 20 C22.18765971 18.32921648 19.06302774 15.86488952 15.8125 13.3125 C15.24313721 12.86914307 14.67377441 12.42578613 14.0871582 11.96899414 C12.93637713 11.07268315 11.78654429 10.17515331 10.63769531 9.27636719 C9.14815549 8.11546764 7.64881231 6.96717434 6.1484375 5.8203125 C5.33632813 5.19898438 4.52421875 4.57765625 3.6875 3.9375 C2.96949219 3.38964844 2.25148438 2.84179688 1.51171875 2.27734375 C1.01285156 1.85582031 0.51398437 1.43429687 0 1 C0 0.67 0 0.34 0 0 Z " fill="#05B4E5" transform="translate(639,359)"/>
<path d="M0 0 C0.99 0 1.98 0 3 0 C2.3957008 4.83439358 0.94146002 9.03915966 -0.9375 13.5 C-2.78740854 17.95598408 -4.49502539 22.41402585 -6 27 C-6.94887818 29.35913748 -7.97560606 31.67183195 -9 34 C-9.66 33.67 -10.32 33.34 -11 33 C-9.85863046 28.43452184 -8.34268026 24.7100996 -6.15234375 20.51953125 C-4.61364819 17.15526469 -3.42235333 13.69160351 -2.25 10.1875 C-2.02723389 9.52878906 -1.80446777 8.87007812 -1.57495117 8.19140625 C-0.63948006 5.33540965 0 3.02607688 0 0 Z " fill="#4570EC" transform="translate(735,717)"/>
<path d="M0 0 C0.66 0 1.32 0 2 0 C-0.70104361 9.42995928 -3.87152311 18.70569001 -7 28 C-8.31963426 23.19347636 -7.26580453 19.75231875 -6 15 C-5.65388672 13.69675781 -5.65388672 13.69675781 -5.30078125 12.3671875 C-4.04141743 7.90277609 -2.86436072 3.73612268 0 0 Z " fill="#08A9F2" transform="translate(314,555)"/>
<path d="M0 0 C2.74939928 0.37818042 5.49481589 0.73392239 8.25 1.0625 C8.99507813 1.15337891 9.74015625 1.24425781 10.5078125 1.33789062 C12.33827056 1.56083103 14.16910009 1.7807178 16 2 C16.33 2.99 16.66 3.98 17 5 C8.10115016 4.52735047 -0.33124459 3.03895283 -9 1 C-9 0.67 -9 0.34 -9 0 C-5.5252216 -0.8686946 -3.41583394 -0.92481973 0 0 Z " fill="#4553D7" transform="translate(419,906)"/>
<path d="M0 0 C0.66 0 1.32 0 2 0 C0.34136495 4.32504836 -2.871041 7.09418825 -6.125 10.25 C-6.68832031 10.80429687 -7.25164062 11.35859375 -7.83203125 11.9296875 C-9.21686028 13.29104485 -10.60783204 14.64614859 -12 16 C-12.33 14.68 -12.66 13.36 -13 12 C-12.34 12 -11.68 12 -11 12 C-10.731875 11.4225 -10.46375 10.845 -10.1875 10.25 C-8.9611378 7.92636635 -7.75156566 5.96175354 -6 4 C-5.01 4 -4.02 4 -3 4 C-3 3.34 -3 2.68 -3 2 C-2.01 2 -1.02 2 0 2 C0 1.34 0 0.68 0 0 Z " fill="#04A1E3" transform="translate(362,484)"/>
<path d="M0 0 C9.16595227 0.24236893 17.39678442 3.10735556 26 6 C22.3359375 8.0859375 22.3359375 8.0859375 19.3125 7.3125 C18.219375 6.879375 17.12625 6.44625 16 6 C11.84525328 4.52308824 7.8629947 3.13869558 3.5 2.4375 C2.2625 2.2209375 2.2625 2.2209375 1 2 C0.67 1.34 0.34 0.68 0 0 Z " fill="#0C9AED" transform="translate(538,347)"/>
<path d="M0 0 C0.33 0 0.66 0 1 0 C1.45904396 4.70520059 -0.02532563 7.58867769 -2.25 11.6875 C-3.15492188 13.39486328 -3.15492188 13.39486328 -4.078125 15.13671875 C-5.94730515 17.92149324 -6.88950299 18.93334726 -10 20 C-8.34229667 15.50675151 -6.15017838 11.38813854 -3.875 7.1875 C-3.50246094 6.49462891 -3.12992188 5.80175781 -2.74609375 5.08789062 C-1.83309623 3.39065164 -0.91687284 1.69514862 0 0 Z " fill="#3D57D5" transform="translate(742,774)"/>
<path d="M0 0 C0.99 0.33 1.98 0.66 3 1 C-2.453617 8.19833552 -7.90719074 15.32211965 -14 22 C-14.33 21.01 -14.66 20.02 -15 19 C-14.01 18.67 -13.02 18.34 -12 18 C-12 17.34 -12 16.68 -12 16 C-11.34 16 -10.68 16 -10 16 C-9.34 14.35 -8.68 12.7 -8 11 C-7.34 11 -6.68 11 -6 11 C-5.731875 10.05125 -5.46375 9.1025 -5.1875 8.125 C-4 5 -4 5 -1 3 C-0.67 2.01 -0.34 1.02 0 0 Z " fill="#5B5CE9" transform="translate(695,799)"/>
<path d="M0 0 C0.33 0.99 0.66 1.98 1 3 C1.66 3.33 2.32 3.66 3 4 C2.814375 4.61875 2.62875 5.2375 2.4375 5.875 C1.76313824 8.04160178 1.76313824 8.04160178 3 10 C3 13.09700621 2.63622214 16.00103767 2.21875 19.0625 C1.94390478 21.17187508 1.94390478 21.17187508 2 24 C1.34 24.33 0.68 24.66 0 25 C0 16.75 0 8.5 0 0 Z " fill="#694FF4" transform="translate(711,911)"/>
<path d="M0 0 C7.8187104 0.46569122 15.36399015 1.22458462 23 3 C23 3.33 23 3.66 23 4 C15.10104528 4.12855442 7.74692943 3.64328806 0 2 C0 1.34 0 0.68 0 0 Z " fill="#0B9CF0" transform="translate(894,358)"/>
<path d="M0 0 C0.33 0 0.66 0 1 0 C1.95971191 7.19783936 -1.33800119 11.97296029 -5 18 C-5.66 17.67 -6.32 17.34 -7 17 C-5.24009216 11.08030998 -2.60305395 5.58365008 0 0 Z " fill="#3B5FE2" transform="translate(750,757)"/>
<path d="M0 0 C2.21983919 3.32975879 3.38409772 6.67511315 4.625 10.4375 C4.85445312 11.10587891 5.08390625 11.77425781 5.3203125 12.46289062 C6.45040619 15.85653506 7 18.38113645 7 22 C6.34 22 5.68 22 5 22 C4.15583837 19.46148538 3.32452701 16.91989146 2.5 14.375 C2.26152344 13.66214844 2.02304687 12.94929687 1.77734375 12.21484375 C0.42618192 8.00693976 -0.28250044 4.47763202 0 0 Z " fill="#158DE1" transform="translate(733,522)"/>
<path d="M0 0 C-1.55002747 3.88397689 -4.00476621 6.02979619 -7.125 8.75 C-8.49011719 9.94882812 -8.49011719 9.94882812 -9.8828125 11.171875 C-10.58148437 11.77515625 -11.28015625 12.3784375 -12 13 C-12.99 12.67 -13.98 12.34 -15 12 C-12.88046983 9.99390948 -10.75486559 7.99506397 -8.625 6 C-8.02171875 5.42765625 -7.4184375 4.8553125 -6.796875 4.265625 C-6.21679688 3.72421875 -5.63671875 3.1828125 -5.0390625 2.625 C-4.50490723 2.12226562 -3.97075195 1.61953125 -3.42041016 1.1015625 C-2 0 -2 0 0 0 Z " fill="#0C0F29" transform="translate(743,955)"/>
<path d="M0 0 C0.99 0.33 1.98 0.66 3 1 C2.25 6.75 2.25 6.75 0 9 C0 10.134375 0 11.26875 0 12.4375 C0 16 0 16 -2 19 C-3.29384979 14.51865271 -2.61333104 11.18505684 -1.5625 6.6875 C-1.13130859 4.80611328 -1.13130859 4.80611328 -0.69140625 2.88671875 C-0.46324219 1.93410156 -0.23507812 0.98148438 0 0 Z " fill="#276BDA" transform="translate(768,701)"/>
<path d="M0 0 C0.598125 0.34675781 1.19625 0.69351563 1.8125 1.05078125 C-5.96819851 2.91018004 -13.17048054 4.46545467 -21.1875 4.05078125 C-21.1875 3.39078125 -21.1875 2.73078125 -21.1875 2.05078125 C-20.00994141 1.97730469 -20.00994141 1.97730469 -18.80859375 1.90234375 C-11.89183065 1.47251691 -11.89183065 1.47251691 -5.1875 -0.13671875 C-2.1875 -0.94921875 -2.1875 -0.94921875 0 0 Z " fill="#6054F1" transform="translate(536.1875,905.94921875)"/>
<path d="M0 0 C0.66 0.33 1.32 0.66 2 1 C0.38304324 3.65082912 -1.2448885 6.29474348 -2.875 8.9375 C-3.33519531 9.69224609 -3.79539062 10.44699219 -4.26953125 11.22460938 C-4.71425781 11.94326172 -5.15898438 12.66191406 -5.6171875 13.40234375 C-6.22989502 14.39995728 -6.22989502 14.39995728 -6.85498047 15.41772461 C-8 17 -8 17 -10 18 C-9.35632481 15.04705712 -8.40722839 12.51718012 -7.0625 9.8125 C-6.72347656 9.11769531 -6.38445313 8.42289063 -6.03515625 7.70703125 C-5 6 -5 6 -3 5 C-2.67 4.01 -2.34 3.02 -2 2 C-1.34 2 -0.68 2 0 2 C0 1.34 0 0.68 0 0 Z " fill="#535FE6" transform="translate(712,774)"/>
<path d="M0 0 C0.66 0.99 1.32 1.98 2 3 C-0.64 6.63 -3.28 10.26 -6 14 C-6.99 13.34 -7.98 12.68 -9 12 C-8.43410156 11.30132813 -7.86820313 10.60265625 -7.28515625 9.8828125 C-6.55167969 8.97273437 -5.81820312 8.06265625 -5.0625 7.125 C-4.33160156 6.22007812 -3.60070312 5.31515625 -2.84765625 4.3828125 C-0.9963748 2.15497253 -0.9963748 2.15497253 0 0 Z " fill="#1581E2" transform="translate(948,585)"/>
<path d="M0 0 C3.50170582 -0.10004874 6.588509 0.21273285 10 1 C10.70125 1.144375 11.4025 1.28875 12.125 1.4375 C14 2 14 2 17 4 C11.06 3.67 5.12 3.34 -1 3 C-0.67 2.01 -0.34 1.02 0 0 Z " fill="#474ED2" transform="translate(437,909)"/>
<path d="M0 0 C0.99918731 3.10858275 0.96975102 4.90138728 0 8 C-0.24878906 8.92296875 -0.49757813 9.8459375 -0.75390625 10.796875 C-1.02074219 11.77140625 -1.28757812 12.7459375 -1.5625 13.75 C-1.83191406 14.73484375 -2.10132813 15.7196875 -2.37890625 16.734375 C-2.58386719 17.48203125 -2.78882813 18.2296875 -3 19 C-3.99 19 -4.98 19 -6 19 C-4.12275039 12.62267685 -2.14328358 6.29304541 0 0 Z " fill="#296CDA" transform="translate(639,681)"/>
<path d="M0 0 C0.66 0.33 1.32 0.66 2 1 C-1.0551543 12.15889691 -1.0551543 12.15889691 -4 16 C-4.66 16 -5.32 16 -6 16 C-4.25192871 10.53262809 -2.34205919 5.24175152 0 0 Z " fill="#3863E1" transform="translate(757,741)"/>
<path d="M0 0 C-4.53038166 1.76795382 -8.16262629 2.0912712 -13 2 C-13.99 2.33 -14.98 2.66 -16 3 C-18.6875 2.5625 -18.6875 2.5625 -21 2 C-21 1.34 -21 0.68 -21 0 C-18.25034772 -0.19511725 -15.50057868 -0.38136433 -12.75 -0.5625 C-11.97269531 -0.61857422 -11.19539063 -0.67464844 -10.39453125 -0.73242188 C-9.64042969 -0.78076172 -8.88632812 -0.82910156 -8.109375 -0.87890625 C-7.41811523 -0.9260376 -6.72685547 -0.97316895 -6.01464844 -1.02172852 C-3.86382928 -0.99853136 -2.05915129 -0.5995764 0 0 Z " fill="#06ACEA" transform="translate(456,341)"/>
<path d="M0 0 C1.4375 1 1.4375 1 3 3 C3.32154929 4.99360557 3.63509019 6.99200326 3.80859375 9.00390625 C3.96670199 11.15569851 3.96670199 11.15569851 4.6875 13.8125 C5 16 5 16 3 19 C2.49521515 16.58424393 1.99602358 14.16755639 1.5 11.75 C1.35691406 11.06808594 1.21382812 10.38617187 1.06640625 9.68359375 C0.38748951 6.35366879 0 3.41667449 0 0 Z " fill="#1098F7" transform="translate(958,515)"/>
<path d="M0 0 C0.33 0.99 0.66 1.98 1 3 C-3.29 5.64 -7.58 8.28 -12 11 C-12 10.01 -12 9.02 -12 8 C-9.9375 6.625 -9.9375 6.625 -7 5 C-4.6360353 3.37355321 -2.32287834 1.68522546 0 0 Z " fill="#2F76EE" transform="translate(987,695)"/>
<path d="M0 0 C4.54109672 4.26587874 8.24735246 9.03612328 12 14 C11.01 14 10.02 14 9 14 C7.68359375 12.50390625 7.68359375 12.50390625 6.4375 10.5625 C4.69463071 7.76740279 4.69463071 7.76740279 2 6 C2 5.01 2 4.02 2 3 C1.34 3 0.68 3 0 3 C0 2.01 0 1.02 0 0 Z " fill="#0F94ED" transform="translate(684,437)"/>
<path d="M0 0 C1.32 0.33 2.64 0.66 4 1 C1.40163864 2.36645701 -1.20265556 3.71830669 -3.8125 5.0625 C-4.91948242 5.64741211 -4.91948242 5.64741211 -6.04882812 6.24414062 C-6.76103516 6.60830078 -7.47324219 6.97246094 -8.20703125 7.34765625 C-8.8616333 7.68804932 -9.51623535 8.02844238 -10.19067383 8.37915039 C-12 9 -12 9 -15 8 C-13.25595212 6.98965502 -11.50450439 5.99207578 -9.75 5 C-8.77546875 4.443125 -7.8009375 3.88625 -6.796875 3.3125 C-4 2 -4 2 0 2 C0 1.34 0 0.68 0 0 Z " fill="#5E50E7" transform="translate(599,882)"/>
<path d="M0 0 C0.99 0.66 1.98 1.32 3 2 C0.56781941 3.19963643 -1.86970578 4.38484438 -4.3125 5.5625 C-5.00279297 5.90474609 -5.69308594 6.24699219 -6.40429688 6.59960938 C-11.66015625 9.11328125 -11.66015625 9.11328125 -15 8 C-12.74306568 5.74306568 -10.95858483 5.12707993 -8 4 C-7.319375 3.62875 -6.63875 3.2575 -5.9375 2.875 C-4 2 -4 2 0 2 C0 1.34 0 0.68 0 0 Z " fill="#2C76F0" transform="translate(970,705)"/>
<path d="M0 0 C0.99 0.33 1.98 0.66 3 1 C2.01 1.495 2.01 1.495 1 2 C1.33 2.886875 1.66 3.77375 2 4.6875 C2.92372607 7.7473426 3.43753684 9.84973472 3 13 C2.01 13.66 1.02 14.32 0 15 C0 10.05 0 5.1 0 0 Z " fill="#684DF3" transform="translate(711,947)"/>
<path d="M0 0 C1.73426971 3.25666031 2.99026337 6.57452179 4.1875 10.0625 C4.55230469 11.10535156 4.91710937 12.14820313 5.29296875 13.22265625 C6 16 6 16 5 19 C0.92394543 14.92394543 0.09672406 7.90223991 -0.1875 2.3125 C-0.125625 1.549375 -0.06375 0.78625 0 0 Z " fill="#0C92E7" transform="translate(204,695)"/>
<path d="M0 0 C1.34391145 3.72507 0.65810293 6.41088861 -0.3125 10.1875 C-0.70888672 11.78658203 -0.70888672 11.78658203 -1.11328125 13.41796875 C-2 16 -2 16 -4 17 C-3.67 12.71 -3.34 8.42 -3 4 C-2.01 3.67 -1.02 3.34 0 3 C0 2.01 0 1.02 0 0 Z " fill="#3267D7" transform="translate(746,681)"/>
<path d="M0 0 C1.74991334 -0.02715383 3.49994945 -0.04646551 5.25 -0.0625 C6.71179688 -0.07990234 6.71179688 -0.07990234 8.203125 -0.09765625 C10.65758678 -0.01195577 12.66168914 0.29293934 15 1 C15 1.66 15 2.32 15 3 C10.05 2.67 5.1 2.34 0 2 C0 1.34 0 0.68 0 0 Z " fill="#0993D9" transform="translate(490,442)"/>
<path d="M0 0 C3.64475185 1.36350429 6.91244487 3.001464 10.25 5 C11.55710937 5.7734375 11.55710937 5.7734375 12.890625 6.5625 C15 8 15 8 16 10 C12.47154251 9.34354279 9.9100293 7.8844361 6.875 6 C3.49540949 3.89578548 3.49540949 3.89578548 0 2 C0 1.34 0 0.68 0 0 Z " fill="#0F9AEF" transform="translate(974,382)"/>
<path d="M0 0 C0.66 0.33 1.32 0.66 2 1 C0.95285076 2.32477959 -0.11344669 3.63443746 -1.1875 4.9375 C-1.77917969 5.66839844 -2.37085938 6.39929688 -2.98046875 7.15234375 C-5.32505203 9.29738803 -6.88391498 9.66094412 -10 10 C-6.66666667 6.66666667 -3.33333333 3.33333333 0 0 Z " fill="#0E102D" transform="translate(792,910)"/>
<path d="M0 0 C0.66 0.33 1.32 0.66 2 1 C0.78575607 2.49144105 -0.44706045 3.96777403 -1.6875 5.4375 C-2.37199219 6.26121094 -3.05648437 7.08492187 -3.76171875 7.93359375 C-6.24022612 10.22177944 -7.69136813 10.68130516 -11 11 C-7.33333333 7.33333333 -3.66666667 3.66666667 0 0 Z " fill="#0E1133" transform="translate(725,969)"/>
<path d="M0 0 C0.99 0 1.98 0 3 0 C7.07877462 8.03501094 7.07877462 8.03501094 6.75 12.0625 C6.5025 12.701875 6.255 13.34125 6 14 C5.71382812 13.42507813 5.42765625 12.85015625 5.1328125 12.2578125 C4.40683342 10.8108611 3.6731345 9.36774192 2.9296875 7.9296875 C2.58164062 7.25164062 2.23359375 6.57359375 1.875 5.875 C1.52179687 5.19179688 1.16859375 4.50859375 0.8046875 3.8046875 C0 2 0 2 0 0 Z " fill="#0B8CE4" transform="translate(952,503)"/>
<path d="M0 0 C3.23861303 1.44424635 5.61969163 3.25772247 8.25 5.625 C8.95640625 6.25664063 9.6628125 6.88828125 10.390625 7.5390625 C10.92171875 8.02117188 11.4528125 8.50328125 12 9 C11.67 9.99 11.34 10.98 11 12 C9.16053461 10.38150935 7.32848583 8.75581169 5.5 7.125 C4.97535156 6.66480469 4.45070313 6.20460938 3.91015625 5.73046875 C2.56858245 4.52827924 1.28000815 3.26754054 0 2 C0 1.34 0 0.68 0 0 Z " fill="#276EE7" transform="translate(281,834)"/>
<path d="M0 0 C5.41798672 0.69165788 10.6822785 1.75799248 16 3 C13.65887549 4.44977894 12.4203071 5.04314411 9.640625 4.7578125 C8.45726562 4.44457031 8.45726562 4.44457031 7.25 4.125 C6.45078125 3.92132813 5.6515625 3.71765625 4.828125 3.5078125 C4.22484375 3.34023438 3.6215625 3.17265625 3 3 C3 2.34 3 1.68 3 1 C2.01 0.67 1.02 0.34 0 0 Z " fill="#098BD5" transform="translate(524,343)"/>
<path d="M0 0 C-2.77994451 1.85329634 -4.78256551 2.68563605 -7.9375 3.625 C-9.21947266 4.01558594 -9.21947266 4.01558594 -10.52734375 4.4140625 C-13 5 -13 5 -17 5 C-16.67 4.34 -16.34 3.68 -16 3 C-13.68925595 2.25881795 -11.35188447 1.59793673 -9 1 C-8.29875 0.79375 -7.5975 0.5875 -6.875 0.375 C-4.55665842 -0.08866832 -2.35759439 -0.06548873 0 0 Z " fill="#6152EE" transform="translate(563,899)"/>
<path d="M0 0 C-1.04162718 2.98683456 -1.70207827 3.8550651 -4.6015625 5.265625 C-5.59929688 5.59046875 -6.59703125 5.9153125 -7.625 6.25 C-8.62789062 6.58515625 -9.63078125 6.9203125 -10.6640625 7.265625 C-11.82035156 7.62914062 -11.82035156 7.62914062 -13 8 C-13 7.34 -13 6.68 -13 6 C-11.21118264 4.99491199 -9.41885304 3.99607264 -7.625 3 C-6.62726562 2.443125 -5.62953125 1.88625 -4.6015625 1.3125 C-2 0 -2 0 0 0 Z " fill="#495EEA" transform="translate(557,790)"/>
<path d="M0 0 C0.66 1.32 1.32 2.64 2 4 C1.3503125 4.804375 1.3503125 4.804375 0.6875 5.625 C-1.20687603 8.29115885 -2.59312806 11.05226832 -4 14 C-4.66 14 -5.32 14 -6 14 C-4.16508812 9.25981099 -2.08058541 4.63586749 0 0 Z " fill="#3669E4" transform="translate(629,708)"/>
<path d="M0 0 C0.33 0 0.66 0 1 0 C2.59162079 5.57067277 3.20674944 10.21101581 3 16 C-0.38370684 12.61629316 -0.05529986 8.7667907 -0.0625 4.1875 C-0.04655989 2.79160221 -0.02736707 1.39572052 0 0 Z " fill="#089EF6" transform="translate(201,677)"/>
<path d="M0 0 C1.98440482 0.75724648 3.96243005 1.53122962 5.9375 2.3125 C7.03964844 2.74175781 8.14179687 3.17101562 9.27734375 3.61328125 C12 5 12 5 13 8 C8.25981099 6.16508812 3.63586749 4.08058541 -1 2 C-0.67 1.34 -0.34 0.68 0 0 Z " fill="#0C94E3" transform="translate(540,454)"/>
<path d="M0 0 C0.78503906 0.28101563 1.57007813 0.56203125 2.37890625 0.8515625 C3.16136719 1.12742187 3.94382812 1.40328125 4.75 1.6875 C5.47316406 1.94789063 6.19632813 2.20828125 6.94140625 2.4765625 C7.93140625 2.8065625 8.92140625 3.1365625 9.94140625 3.4765625 C9.94140625 4.1365625 9.94140625 4.7965625 9.94140625 5.4765625 C8.16879994 5.02513475 6.39836945 4.56515727 4.62890625 4.1015625 C3.14970703 3.71871094 3.14970703 3.71871094 1.640625 3.328125 C-1.05859375 2.4765625 -1.05859375 2.4765625 -4.05859375 0.4765625 C-2.05859375 -0.5234375 -2.05859375 -0.5234375 0 0 Z " fill="#0D8CDB" transform="translate(526.05859375,448.5234375)"/>
<path d="M0 0 C0.66 0.33 1.32 0.66 2 1 C-0.64 3.97 -3.28 6.94 -6 10 C-6.99 9.34 -7.98 8.68 -9 8 C-8.43410156 7.50628906 -7.86820313 7.01257813 -7.28515625 6.50390625 C-6.55167969 5.86324219 -5.81820312 5.22257813 -5.0625 4.5625 C-4.33160156 3.92441406 -3.60070312 3.28632812 -2.84765625 2.62890625 C-1.87860647 1.77458541 -0.91348825 0.91348825 0 0 Z " fill="#0E102C" transform="translate(759,939)"/>
<path d="M0 0 C0.33 0.66 0.66 1.32 1 2 C-1.20101889 6.27975895 -4.17942593 10.11218169 -7 14 C-7.66 13.67 -8.32 13.34 -9 13 C-6.03 8.71 -3.06 4.42 0 0 Z " fill="#3C66E4" transform="translate(619,728)"/>
<path d="M0 0 C2.97 0 5.94 0 9 0 C9.33 0.99 9.66 1.98 10 3 C6.37 3 2.74 3 -1 3 C-0.67 2.01 -0.34 1.02 0 0 Z " fill="#296FE3" transform="translate(894,724)"/>
<path d="M0 0 C2.97 0 5.94 0 9 0 C4.94191935 2.7053871 0.95110601 5 -4 5 C-4 4.34 -4 3.68 -4 3 C-3.01 3 -2.02 3 -1 3 C-0.67 2.01 -0.34 1.02 0 0 Z " fill="#3079F0" transform="translate(946,714)"/>
<path d="M0 0 C3.11422506 1.55711253 3.7266333 3.84690151 5 7 C4.6875 9.875 4.6875 9.875 4 12 C3.731875 11.443125 3.46375 10.88625 3.1875 10.3125 C2.00469337 7.90694879 2.00469337 7.90694879 0.3125 5.4375 C-0.3371875 4.2309375 -0.3371875 4.2309375 -1 3 C-0.67 2.01 -0.34 1.02 0 0 Z " fill="#0795E3" transform="translate(739,470)"/>
<path d="M0 0 C2.9777759 2.49996659 3.94548483 5.04711071 5.1875 8.6875 C5.53167969 9.68136719 5.87585938 10.67523437 6.23046875 11.69921875 C6.48441406 12.45847656 6.73835937 13.21773437 7 14 C6.34 14 5.68 14 5 14 C4.15675328 12.421924 3.32576082 10.8372958 2.5 9.25 C2.0359375 8.36828125 1.571875 7.4865625 1.09375 6.578125 C0 4 0 4 0 0 Z " fill="#138CF3" transform="translate(223,750)"/>
<path d="M0 0 C0.66 0.33 1.32 0.66 2 1 C-0.87494471 4.98069267 -3.82117329 7.43571997 -8 10 C-6.34908222 5.70761377 -3.26245434 3.1206085 0 0 Z " fill="#1892F6" transform="translate(939,598)"/>
<path d="M0 0 C3.53790403 3.69172595 3.59115883 7.09390595 4 12 C3.34 12 2.68 12 2 12 C0.70756464 7.8803623 -0.26252625 4.33168317 0 0 Z " fill="#1391E8" transform="translate(740,549)"/>
<path d="M0 0 C1.32 0.66 2.64 1.32 4 2 C1.36 3.98 -1.28 5.96 -4 8 C-2.87548273 5.0280615 -1.77706209 2.66559313 0 0 Z " fill="#634EE5" transform="translate(765,930)"/>
<path d="M0 0 C0.99 0.33 1.98 0.66 3 1 C0.525 5.455 0.525 5.455 -2 10 C-2.66 10 -3.32 10 -4 10 C-2.8905928 6.51329166 -1.73662334 3.22515763 0 0 Z " fill="#10163B" transform="translate(720,761)"/>
<path d="M0 0 C0.66 0 1.32 0 2 0 C1.67 3.63 1.34 7.26 1 11 C0.67 10.01 0.34 9.02 0 8 C-0.66 8 -1.32 8 -2 8 C-1.125 1.125 -1.125 1.125 0 0 Z " fill="#0992DF" transform="translate(304,589)"/>
<path d="M0 0 C0.33 0 0.66 0 1 0 C1.36504603 1.58086048 1.71660506 3.16483907 2.0625 4.75 C2.25972656 5.63171875 2.45695313 6.5134375 2.66015625 7.421875 C2.99825872 9.98679028 2.81158635 11.57091639 2 14 C2 13.01 2 12.02 2 11 C1.34 11 0.68 11 0 11 C-0.84098656 6.98195309 -1.05404945 3.98196457 0 0 Z " fill="#167CCE" transform="translate(744,561)"/>
<path d="M0 0 C1 3 1 3 0.00390625 5.48046875 C-0.47175781 6.37378906 -0.94742187 7.26710938 -1.4375 8.1875 C-1.91058594 9.08855469 -2.38367188 9.98960937 -2.87109375 10.91796875 C-3.24363281 11.60503906 -3.61617188 12.29210937 -4 13 C-4.33 12.34 -4.66 11.68 -5 11 C-3.53384702 7.22989233 -1.86595779 3.58838037 0 0 Z " fill="#06AEF2" transform="translate(321,538)"/>
<path d="M0 0 C2.31 0 4.62 0 7 0 C6.67 1.32 6.34 2.64 6 4 C6.66 4.33 7.32 4.66 8 5 C4.75791433 4.64950425 3.38472296 4.43778819 1.1875 1.9375 C0.795625 1.298125 0.40375 0.65875 0 0 Z " fill="#08BBEC" transform="translate(639,359)"/>
<path d="M0 0 C7.48291572 6.15034169 7.48291572 6.15034169 10 10 C6.03209924 8.32127275 3.13068506 5.91722926 0 3 C0 2.01 0 1.02 0 0 Z " fill="#04BAF1" transform="translate(674,386)"/>
<path d="M0 0 C0.66 0.66 1.32 1.32 2 2 C-0.31 4.31 -2.62 6.62 -5 9 C-5 4.61031544 -2.87194899 3.23094261 0 0 Z " fill="#624DEC" transform="translate(722,969)"/>
<path d="M0 0 C0.33 0.99 0.66 1.98 1 3 C-0.8125 5.6875 -0.8125 5.6875 -3 8 C-3.66 8 -4.32 8 -5 8 C-3.8141763 4.62496331 -2.72426311 2.35277269 0 0 Z " fill="#4259E0" transform="translate(737,786)"/>
<path d="M0 0 C0 3.86695678 -1.41909971 6.5088452 -3 10 C-3.66 9.67 -4.32 9.34 -5 9 C-3.375 2.25 -3.375 2.25 0 0 Z " fill="#425FD7" transform="translate(729,741)"/>
<path d="M0 0 C4.43458973 1.3937282 6.87378374 3.60582235 10 7 C5.61308455 6.49381745 3.15608721 3.86917019 0 1 C0 0.67 0 0.34 0 0 Z " fill="#0B9AF2" transform="translate(632,389)"/>
<path d="M0 0 C0.66 0 1.32 0 2 0 C1.01 3.3 0.02 6.6 -1 10 C-1.66 9.01 -2.32 8.02 -3 7 C-1.59459459 1.59459459 -1.59459459 1.59459459 0 0 Z " fill="#0599D8" transform="translate(314,555)"/>
<path d="M0 0 C0.66 0 1.32 0 2 0 C3.06775224 1.96466413 4.06553465 3.96855359 5 6 C4 8 4 8 2 9 C1.34 6.03 0.68 3.06 0 0 Z " fill="#0F80D1" transform="translate(721,496)"/>
<path d="M0 0 C0.33 0 0.66 0 1 0 C1.36923077 5.53846154 1.36923077 5.53846154 -0.5 7.875 C-1.2425 8.431875 -1.2425 8.431875 -2 9 C-3 6 -3 6 -1.5625 2.8125 C-1.046875 1.884375 -0.53125 0.95625 0 0 Z " fill="#3A5AD2" transform="translate(746,766)"/>
<path d="M0 0 C1 2 1 2 0.44140625 3.9453125 C0.15136719 4.66460938 -0.13867188 5.38390625 -0.4375 6.125 C-0.72496094 6.84945312 -1.01242187 7.57390625 -1.30859375 8.3203125 C-1.53675781 8.87460937 -1.76492188 9.42890625 -2 10 C-2.33 10 -2.66 10 -3 10 C-2.88637738 8.5199159 -2.75877092 7.04089926 -2.625 5.5625 C-2.55539062 4.73878906 -2.48578125 3.91507813 -2.4140625 3.06640625 C-2.27742187 2.38449219 -2.14078125 1.70257812 -2 1 C-1.34 0.67 -0.68 0.34 0 0 Z " fill="#0F1D46" transform="translate(759,734)"/>
<path d="M0 0 C2 4 2 4 1.125 7.25 C0.75375 8.1575 0.3825 9.065 0 10 C-0.66 9.67 -1.32 9.34 -2 9 C-1.34 6.03 -0.68 3.06 0 0 Z " fill="#1287E0" transform="translate(958,562)"/>
<path d="M0 0 C2.29633824 3.44450737 2.54016485 5.93812283 3 10 C2.34 10 1.68 10 1 10 C-0.1577506 6.52674819 -0.06866652 3.63932552 0 0 Z " fill="#1579CA" transform="translate(737,534)"/>
<path d="M0 0 C1.32 0.33 2.64 0.66 4 1 C1.36 2.98 -1.28 4.96 -4 7 C-3.67 5.68 -3.34 4.36 -3 3 C-2.34 3 -1.68 3 -1 3 C-0.67 2.01 -0.34 1.02 0 0 Z " fill="#6250E6" transform="translate(773,924)"/>
<path d="M0 0 C0.66 0.66 1.32 1.32 2 2 C-1.465 4.97 -1.465 4.97 -5 8 C-5 5 -5 5 -2.5 2.3125 C-1.675 1.549375 -0.85 0.78625 0 0 Z " fill="#624EEA" transform="translate(782,916)"/>
<path d="M0 0 C-4.1205746 1.99785435 -7.45194365 2.17835515 -12 2 C-7.89783794 -0.73477471 -4.73617773 -1.57872591 0 0 Z " fill="#202256" transform="translate(542,907)"/>
<path d="M0 0 C0.66 0.33 1.32 0.66 2 1 C0.02 3.31 -1.96 5.62 -4 8 C-4 4.09161134 -2.49432124 2.88405893 0 0 Z " fill="#525BE9" transform="translate(716,817)"/>
<path d="M0 0 C1.25541557 3.76624671 0.37061958 5.37188934 -1 9 C-1.66 8.67 -2.32 8.34 -3 8 C-1.125 1.125 -1.125 1.125 0 0 Z " fill="#316EE5" transform="translate(636,692)"/>
</svg>
